<?xml version="1.0" encoding="utf-8"?>
<!-- Generator: Adobe Illustrator 18.0.0, SVG Export Plug-In . SVG Version: 6.00 Build 0)  -->
<!DOCTYPE svg PUBLIC "-//W3C//DTD SVG 1.1//EN" "http://www.w3.org/Graphics/SVG/1.1/DTD/svg11.dtd">
<svg version="1.1" id="Layer_1" xmlns="http://www.w3.org/2000/svg" xmlns:xlink="http://www.w3.org/1999/xlink" x="0px" y="0px"
	 width="480px" height="225px" viewBox="0 0 480 225" enable-background="new 0 0 480 225" xml:space="preserve">
<polygon fill="#F60503" points="63,94.2 94.6,112.4 163.4,72.6 163.5,224.9 194.7,206.8 194.9,18.1 "/>
<g>
	<path fill="#F60503" d="M212.2,168.5v-112h27.9v39.7h29.7V56.5h27.7v112h-27.7v-45.2h-29.7v45.2H212.2z"/>
	<path fill="#737373" d="M365.1,82.6v85.9h-27.9V82.6h-24V56.5h75.9v26.2H365.1z"/>
	<path fill="#737373" d="M399.1,168.5V96.4c0-12.6,3.8-22.7,11.3-30.4c7.5-7.7,17.4-11.6,29.7-11.6c11.3,0,20.8,3.8,28.4,11.3
		c7.6,7.5,11.5,16.8,11.5,27.8c0,11.7-4.1,21.2-12.3,28.3c-8.2,7.1-19.2,10.7-32.8,10.7H432v-26.7h4.3c4.8,0,8.5-1.1,11.2-3.4
		c2.7-2.3,4.1-5.4,4.1-9.3c0-3.5-1.1-6.3-3.4-8.6c-2.3-2.3-5.2-3.4-8.7-3.4c-3.9,0-7,1.3-9.2,4c-2.2,2.6-3.3,6.4-3.3,11.1v72.3
		H399.1z"/>
</g>
<g>
	<g>
		<path fill="#C9C9C9" d="M212,206.6v-24.3h9c1.5,0,2.8,0.2,3.8,0.5c1,0.3,1.9,1,2.6,2.1c0.7,1.1,1.1,2.3,1.1,3.7
			c0,1.3-0.4,2.5-1.1,3.5c-0.7,1-1.8,1.6-3.1,1.9c1.6,0.3,2.9,1,3.7,2.1c0.8,1.1,1.3,2.4,1.3,3.9c0,1.9-0.6,3.5-1.8,4.7
			c-1.2,1.3-3,1.9-5.4,1.9H212z M215.9,192.4h5.1c1,0,1.9-0.3,2.5-1c0.6-0.7,0.9-1.5,0.9-2.5c0-1.1-0.3-1.9-1-2.5
			c-0.7-0.5-1.5-0.8-2.4-0.8h-5V192.4z M215.9,202.9h5.4c1.1,0,2-0.3,2.7-0.9c0.7-0.6,1-1.5,1-2.5c0-1-0.3-1.9-1-2.5
			c-0.7-0.7-1.6-1-2.7-1h-5.4V202.9z"/>
		<path fill="#C9C9C9" d="M261.1,206.6h-15v-24.3H261v3.6h-10.7v6.6h8.6v3.5h-8.6v6.8h10.8V206.6z"/>
		<path fill="#C9C9C9" d="M292.1,206.6h-14.2v-24.3h4.4v20.4h9.8V206.6z"/>
		<path fill="#C9C9C9" d="M326.4,206.6H322l-1.8-5.8h-8.9l-1.8,5.8h-3.6l7.7-24.3h5.1L326.4,206.6z M319,197.2l-3.4-10.9l-3.4,10.9
			H319z"/>
		<path fill="#C9C9C9" d="M360.3,206.6h-4.4l-3.6-10h-5.9v10h-4.2v-24.3h10c2.8,0,4.8,0.7,6.1,2c1.3,1.3,2,3,2,5.1
			c0,3.1-1.4,5.3-4.2,6.5L360.3,206.6z M346.5,193h5.2c1.5,0,2.6-0.3,3.3-1c0.7-0.7,1.1-1.6,1.1-2.7c0-1.1-0.4-1.9-1.1-2.6
			c-0.7-0.7-1.7-1-3-1h-5.5V193z"/>
		<path fill="#C9C9C9" d="M393.4,182.2v15.6c0,2.1-0.2,3.7-0.7,4.9c-0.5,1.1-1.3,2.1-2.6,3c-1.3,0.8-2.9,1.2-4.7,1.2
			c-1.9,0-3.4-0.4-4.6-1.1c-1.2-0.7-2.1-1.7-2.6-2.9c-0.5-1.2-0.8-2.8-0.8-4.8v-16h4.2v15.6c0,2.1,0.4,3.5,1.3,4.2
			c0.9,0.7,1.8,1,3,1c1.3,0,2.3-0.4,3.1-1.1c0.8-0.7,1.2-2.1,1.2-4.1v-15.6H393.4z"/>
		<path fill="#C9C9C9" d="M408.9,200.7l4-0.9c0.5,2.4,2.3,3.6,5.6,3.6c1.5,0,2.6-0.3,3.4-0.9c0.8-0.6,1.2-1.4,1.2-2.3
			c0-0.7-0.2-1.3-0.5-1.8c-0.4-0.6-1.1-1-2.3-1.3l-4.4-1.2c-1.5-0.4-2.6-0.9-3.3-1.4c-0.7-0.5-1.3-1.3-1.7-2.2c-0.4-1-0.6-2-0.6-3.1
			c0-2.2,0.8-3.9,2.3-5.2c1.5-1.3,3.5-2,5.9-2c2,0,3.8,0.5,5.3,1.4c1.6,0.9,2.6,2.2,3,3.9l-4,1c-0.6-1.8-2-2.8-4.3-2.8
			c-1.3,0-2.3,0.3-3,0.9c-0.7,0.6-1,1.3-1,2.2c0,1.4,1.1,2.4,3.2,2.9l3.9,1c2.4,0.6,4,1.6,4.8,2.8c0.8,1.2,1.2,2.6,1.2,4.1
			c0,2.4-0.9,4.3-2.6,5.6c-1.7,1.4-3.9,2.1-6.6,2.1c-2.3,0-4.3-0.5-6-1.5C410.6,204.4,409.5,202.8,408.9,200.7z"/>
	</g>
</g>
<polygon fill="#DEDEDE" points="194.1,18.1 162.7,0.1 0,93.8 0,94.7 132.1,170.9 132.1,134.6 62.2,94.2 "/>
<g>
	<path fill="#FFFFFF" d="M176.5,51.7v5.4l-5.2,3.1V40.5l9.9-5.8c2.4-1.4,4.2-1.9,5.2-1.5c1,0.4,1.5,1.9,1.5,4.5c0,2.8-0.4,5-1.3,6.4
		c-0.9,1.6-2.7,3.2-5.4,4.8L176.5,51.7z M176.5,41.8v5.6l3.6-2.1c1-0.6,1.6-1.1,1.9-1.6c0.3-0.5,0.4-1.4,0.4-2.6
		c0-1.1-0.1-1.7-0.4-1.9c-0.3-0.2-1,0-2,0.5L176.5,41.8z"/>
	<path fill="#FFFFFF" d="M183.1,88l-7,4.1l-1,3.9l-5.4,3.2l5.9-23.1l8-4.7l6,16.2l-5.3,3.1L183.1,88z M182.1,84.8l-2.4-7.2l-2.4,10
		L182.1,84.8z"/>
	<path fill="#FFFFFF" d="M176.5,127.6v5.7l-5.2,3.1v-19.7l10.1-5.9c2.4-1.4,4-2,5-1.7c1,0.3,1.6,1.5,1.6,3.7c0,2.1-0.2,3.7-0.6,4.6
		c-0.5,1.1-1.4,2.3-3,3.6v0.2c1.2-0.6,2.1-0.8,2.7-0.6c0.6,0.2,0.9,0.9,0.9,2v4l-5.2,3.1v-3.2c0-0.8-0.2-1.3-0.5-1.5
		c-0.3-0.2-0.9-0.1-1.7,0.3L176.5,127.6z M176.5,118v5.3l4.1-2.4c1-0.6,1.6-1.1,1.8-1.6c0.2-0.5,0.3-1.4,0.3-2.7
		c0-0.9-0.1-1.4-0.4-1.5c-0.3-0.2-0.9,0-1.7,0.5L176.5,118z"/>
	<path fill="#FFFFFF" d="M176.5,151.8v7.4l1.6-0.9l5.1-10.4l6.3-3.7l-6.9,13.7l7.5,5.6l-6.5,3.8l-5.5-4.5l-1.6,0.9v7.7l-5.2,3.1
		v-19.7L176.5,151.8z"/>
</g>
<polygon fill="#FFFFFF" points="30.9,75.7 63.3,94.4 64.8,95.3 64.8,93.4 32.5,75 "/>
<polygon fill="#FFFFFF" points="98.5,37 130.6,55.3 130.6,92.4 128.7,93.5 128.7,56.3 96.9,37.9 "/>
<polygon fill="#FFFFFF" points="131.5,18.1 163.5,36.3 163.5,73.5 161.7,74.5 161.7,37.3 129.8,19 "/>
<polygon fill="#FFFFFF" points="65.5,56 97.7,74.3 97.7,111.5 95.9,112.5 95.9,75.4 64,56.9 "/>
<polygon fill="#666666" points="163.4,72.6 132.2,90.6 131.9,170.3 0,94.2 0.1,130.3 163.4,224.9 "/>
<polygon fill="#FFFFFF" points="194.8,170.2 163.3,188.7 131.9,170.5 131.9,168.4 163.4,186.5 194.9,168.4 "/>
<polygon fill="#FFFFFF" points="195,132.1 163.5,150.6 131.3,132 131.3,129.9 163.5,148.5 195.1,130.4 "/>
<polygon fill="#FFFFFF" points="194.9,94.1 163.4,112.6 131.2,94 131.2,91.9 163.4,110.5 195,92.4 "/>
<polygon fill="#FFFFFF" points="131.9,208.5 131.9,170.3 131.9,168.4 130.3,169.3 130.5,206.4 "/>
<polygon fill="#FFFFFF" points="196.5,53.5 163.4,72.6 161.7,73.6 163.4,74.5 195.4,55.7 "/>
<g>
	<path fill="#666666" d="M19.5,90.3l6.8,3.9l7.2-4.2l-6.8-3.9l5.5-3.2l18,10.2l-5.5,3.2l-7-4l-7.2,4.2l7,4l-5.5,3.2L14,93.5
		L19.5,90.3z"/>
	<path fill="#666666" d="M58.5,67.8l18,10.2L71,81.2L53,71L58.5,67.8z"/>
	<path fill="#666666" d="M102.8,48.6l-5.6,3.2c-0.7-0.4-1.6-0.4-2.6-0.2c-0.8,0.2-1.7,0.6-2.7,1.2c-1.9,1.1-2.8,1.9-2.7,2.6
		c0.1,0.5,0.9,1.2,2.5,2.1l2.9,1.7c1.5,0.9,2.8,1.2,4,1.1c1-0.1,2.2-0.6,3.8-1.5c1.4-0.8,2.2-1.5,2.3-2c0.1-0.5-0.5-1.1-1.7-1.8
		L99,57.3l-3.3-1.9l9.4-5.4l3.1,1.8c3,1.7,4.3,3.1,4,4.3c-0.3,1.2-2.3,2.9-6.1,5c-3.5,2-6.4,3.2-8.6,3.5c-2.7,0.4-5.4-0.2-8.1-1.8
		l-4.6-2.6c-2.8-1.6-3.8-3.2-3-4.7c0.6-1.3,2.6-2.9,6-4.9c3-1.8,5.6-2.8,7.6-3.2C98.1,46.9,100.5,47.3,102.8,48.6z"/>
	<path fill="#666666" d="M118.4,33.2l6.8,3.9l7.2-4.2l-6.8-3.9l5.5-3.2l18,10.2l-5.5,3.2l-7-4l-7.2,4.2l7,4l-5.5,3.2l-18-10.2
		L118.4,33.2z"/>
</g>
<polygon fill="#FFFFFF" points="96.2,113.4 64.4,131.4 64.4,168.6 66.3,169.6 66.3,132.4 97.7,114.2 "/>
<polygon fill="#FFFFFF" points="63.2,94.4 31.5,112.4 31.5,149.6 33.3,150.6 33.3,113.4 65,95.3 "/>
<polygon fill="#FFFFFF" points="129.4,132.2 97.3,150.5 97.3,187.7 99.1,188.7 99.1,151.5 130.9,133 "/>
<g>
	<g>
		<path fill="#FFFFFF" d="M50.2,137.4l0,15.9l-5.5-3.2l0-15.9l-5.6-3.2l0-4.8l16.7,9.7l0,4.8L50.2,137.4z"/>
		<path fill="#FFFFFF" d="M79,153.9l0,3.8l8.8,5.1l0,3.8l-8.8-5.1l0,4.1l9.6,5.6l0,4.5l-15.1-8.8l0-20.7l14.9,8.7l0,4.5L79,153.9z"
			/>
		<path fill="#FFFFFF" d="M122.9,182.2l-5.7-3.3l0-0.8c0-0.8-0.3-1.5-1-2.2c-0.5-0.6-1.3-1.2-2.4-1.8c-1.5-0.9-2.5-1.1-2.9-0.8
			c-0.4,0.3-0.5,1.2-0.5,2.8l0,3.2c0,1.7,0.2,2.9,0.5,3.6c0.4,1,1.4,1.9,3,2.8c1.3,0.7,2.1,1.1,2.5,1.1c0.6,0,0.9-0.6,0.9-1.7l0-0.6
			l5.7,3.3l0,0.6c0,2.9-0.6,4.5-1.8,4.8c-1.2,0.3-3.4-0.5-6.7-2.4c-2.3-1.3-4-2.4-5-3.3c-1.5-1.3-2.7-2.6-3.5-4.2
			c-0.8-1.7-1.3-3.8-1.3-6.2l0-5.3c0-3.2,0.9-4.8,2.6-5c1.4-0.1,3.8,0.8,7.1,2.8c2.9,1.7,5,3.4,6.3,5.1c1.5,1.9,2.2,4.1,2.2,6.7
			L122.9,182.2z"/>
		<path fill="#FFFFFF" d="M142.9,186.4l0,7.8l7.2,4.2l0-7.8l5.5,3.2l0,20.7l-5.5-3.2l0-8.1l-7.2-4.2l0,8.1l-5.5-3.2l0-20.7
			L142.9,186.4z"/>
	</g>
</g>
</svg>
